<?xml version="1.0" standalone="no"?>
<!DOCTYPE svg PUBLIC "-//W3C//DTD SVG 20010904//EN"
 "http://www.w3.org/TR/2001/REC-SVG-20010904/DTD/svg10.dtd">
<svg version="1.0" xmlns="http://www.w3.org/2000/svg"
 width="400.000000pt" height="400.000000pt" viewBox="0 0 400.000000 400.000000"
 preserveAspectRatio="xMidYMid meet">
<metadata>
Created by potrace 1.11, written by Peter Selinger 2001-2013
</metadata>
<g transform="translate(0.000000,400.000000) scale(0.100000,-0.100000)"
fill="#000000" stroke="none">
<path d="M0 2000 l0 -2000 2000 0 2000 0 0 2000 0 2000 -2000 0 -2000 0 0
-2000z m3038 903 c4 -25 -16 -31 -36 -11 -20 20 -14 40 11 36 14 -2 23 -11 25
-25z m-1805 -165 c4 -101 3 -236 -1 -301 -4 -66 -4 -121 -1 -123 12 -7 7 -104
-4 -104 -7 0 -7 -4 1 -12 16 -16 15 -28 -3 -28 -13 0 -15 10 -12 51 2 27 0 52
-5 55 -8 5 -12 -16 -9 -48 1 -10 -3 -18 -9 -18 -6 0 -8 6 -4 13 5 9 3 9 -7 -1
-11 -10 -11 -15 -2 -20 17 -10 29 -72 15 -72 -6 0 -17 9 -25 21 -9 13 -17 16
-22 10 -11 -19 -25 -12 -25 14 0 14 3 25 8 25 4 0 8 11 8 26 2 23 1 24 -11 7
-10 -13 -17 -15 -25 -7 -15 15 -22 79 -11 107 5 13 6 30 1 37 -6 9 -10 7 -15
-9 -4 -14 -12 -20 -21 -17 -15 6 -20 -19 -5 -28 5 -4 8 -14 6 -24 -2 -9 -4
-25 -4 -35 -1 -10 -6 -15 -12 -12 -6 4 -8 14 -4 24 6 15 5 15 -11 -1 -17 -17
-12 -54 6 -43 13 8 13 -11 0 -36 -9 -16 -7 -19 14 -19 14 0 29 8 35 17 5 10
13 15 17 11 4 -4 1 -15 -6 -23 -19 -23 -22 -65 -4 -58 8 3 14 13 15 22 0 10 2
11 6 3 2 -6 9 -10 14 -6 5 3 9 0 9 -5 0 -6 -4 -11 -10 -11 -5 0 -10 -7 -10
-15 0 -22 -38 -18 -45 5 -3 11 -3 24 0 30 3 5 1 10 -4 10 -6 0 -11 -5 -11 -11
0 -14 -53 -89 -62 -89 -13 0 -9 35 5 49 10 11 10 13 0 7 -22 -12 -14 22 8 38
17 11 19 18 10 33 -6 10 -11 12 -11 5 0 -7 -8 -24 -17 -39 -15 -23 -18 -24
-23 -7 -4 10 -1 29 6 43 9 16 10 29 4 36 -6 7 -10 156 -10 358 l0 347 134 0
133 0 6 -182z m1746 163 c11 -11 29 -25 41 -31 19 -10 20 -18 18 -118 -3 -95
-5 -107 -20 -106 -10 0 -131 1 -269 2 -238 2 -251 3 -238 20 9 11 5 9 -11 -4
-22 -19 -38 -22 -144 -23 -66 0 -121 -3 -123 -5 -6 -6 -6 -97 0 -103 3 -2 44
-5 91 -5 54 1 86 -3 86 -10 0 -7 4 -7 13 0 7 6 121 10 310 11 l297 0 0 -89 c0
-79 -2 -89 -20 -95 -10 -3 -28 -1 -39 4 -28 16 -49 15 -33 -1 18 -18 14 -43
-12 -71 l-24 -26 -221 0 c-122 0 -219 4 -216 9 3 5 1 11 -5 15 -5 3 -10 0 -10
-8 0 -22 -86 -21 -100 1 -11 16 -11 16 -6 -1 5 -17 0 -18 -52 -16 -54 3 -57 2
-60 -22 -6 -52 -12 -66 -37 -77 -14 -6 -25 -17 -24 -24 0 -10 2 -10 6 0 9 22
20 13 15 -13 -9 -48 -32 -16 -32 46 0 16 -6 26 -15 26 -9 0 -11 -5 -7 -11 5
-6 9 -24 10 -41 1 -23 -4 -33 -23 -42 -26 -11 -26 -12 -29 27 -1 8 -8 14 -14
12 -7 -1 -22 2 -32 8 -16 9 -20 7 -20 -5 0 -11 -10 -15 -35 -15 -19 0 -35 5
-35 11 0 5 6 7 13 3 10 -6 10 -4 0 7 -10 10 -13 89 -13 321 l0 309 69 -5 c55
-4 70 -2 75 9 4 11 -3 15 -29 15 -19 0 -35 5 -35 10 0 6 -18 10 -40 10 l-40 0
0 55 0 55 500 0 c480 0 501 -1 519 -19z m-1749 -750 c0 -5 7 -17 16 -25 14
-15 13 -16 -9 -16 -20 0 -25 5 -23 25 1 23 16 37 16 16z m1000 -23 c0 -5 6 -8
13 -7 31 4 35 -1 25 -29 -14 -36 -78 -61 -78 -31 0 11 4 19 10 19 5 0 8 15 6
34 -1 25 1 33 11 29 7 -3 13 -9 13 -15z m-1063 -3 c-4 -8 -2 -17 3 -20 6 -4
10 -1 10 4 0 6 5 11 11 11 6 0 9 -7 6 -15 -4 -8 -1 -17 5 -21 7 -4 8 -3 4 4
-4 7 -1 12 8 12 20 0 29 -17 14 -24 -7 -3 -2 -3 12 0 14 4 28 12 32 18 5 6 8
2 8 -10 0 -29 -67 -53 -83 -31 -6 8 -7 6 -3 -6 3 -11 0 -20 -9 -23 -8 -4 -12
-10 -9 -16 9 -14 -25 -48 -42 -41 -19 7 -18 21 4 27 19 6 25 66 6 66 -6 0 -10
-11 -9 -23 2 -20 -1 -23 -20 -19 -23 4 -25 32 -3 32 5 0 7 4 3 10 -3 5 -13 6
-23 3 -12 -4 -14 -3 -7 5 6 6 22 13 35 15 20 3 24 9 22 31 -3 19 1 26 13 26
11 0 15 -5 12 -15z m1148 -5 c3 -5 1 -10 -4 -10 -6 0 -11 5 -11 10 0 6 2 10 4
10 3 0 8 -4 11 -10z m536 0 c6 0 7 -4 4 -10 -3 -5 -1 -10 4 -10 6 0 11 -10 11
-21 0 -21 -1 -20 -27 6 -25 25 -28 25 -32 9 -2 -11 -7 -21 -12 -24 -4 -3 -4
-12 1 -20 8 -13 10 -12 10 2 0 9 5 20 12 24 8 5 9 -2 5 -24 -4 -17 -2 -34 3
-37 6 -3 10 -12 10 -18 -1 -7 -5 -6 -13 4 -10 13 -38 30 -57 33 -3 1 -11 5
-19 10 -9 6 -8 1 3 -16 15 -23 15 -25 -1 -25 -10 0 -28 9 -40 20 -21 19 -21
20 -5 45 14 21 14 24 2 17 -25 -16 -78 -15 -91 1 -19 23 6 35 66 32 43 -3 50
-6 56 -28 6 -23 9 -20 13 12 1 14 52 28 74 22 8 -2 18 -4 23 -4z m-1463 -7
c-2 -5 1 -9 6 -10 5 -1 12 -7 17 -14 6 -11 11 -10 26 2 25 23 63 31 56 13 -3
-8 -9 -14 -15 -14 -5 0 -6 -5 -3 -10 5 -8 11 -8 19 -1 15 13 26 4 26 -21 0
-10 4 -18 10 -18 5 0 7 7 4 15 -4 8 -1 15 4 15 15 0 27 -43 13 -48 -19 -6 -12
-22 10 -22 21 0 22 14 3 64 -3 9 -1 16 6 16 7 0 9 8 5 20 -11 34 22 23 34 -11
8 -25 8 -34 -5 -46 -11 -12 -12 -18 -3 -29 9 -11 8 -14 -5 -14 -9 0 -21 -11
-26 -24 -7 -18 -14 -22 -34 -19 -21 4 -24 9 -20 33 6 26 4 27 -21 22 -20 -3
-26 -1 -21 7 4 6 1 11 -8 11 -9 0 -16 4 -16 10 0 5 -6 7 -14 4 -9 -3 -17 3
-21 16 -4 14 -10 18 -18 12 -7 -5 -24 -12 -39 -16 -26 -6 -27 -5 -18 19 10 27
2 33 -19 13 -11 -10 -10 -8 0 10 9 14 23 22 41 22 16 0 27 -3 26 -7z m142 -3
c0 -5 -4 -10 -10 -10 -5 0 -10 5 -10 10 0 6 5 10 10 10 6 0 10 -4 10 -10z
m256 -8 c-4 -22 -56 -28 -56 -7 0 12 -6 15 -19 10 -11 -3 -22 -1 -25 4 -4 5
16 9 48 9 43 -1 53 -4 52 -16z m54 8 c0 -5 -4 -10 -9 -10 -6 0 -6 -12 0 -32 5
-18 9 -34 9 -35 0 -1 -9 0 -20 2 -11 2 -20 0 -20 -6 0 -5 -4 -9 -10 -9 -5 0
-10 14 -10 30 0 17 4 30 9 30 5 0 11 9 14 20 5 20 37 29 37 10z m534 0 c-5 -5
-25 -13 -44 -16 -33 -6 -34 -6 -15 9 22 18 76 24 59 7z m212 -6 c-3 -8 -2 -13
3 -10 4 3 17 -4 27 -15 18 -21 18 -21 -5 -40 -18 -15 -27 -17 -37 -8 -8 6 -14
8 -14 4 0 -5 -3 -6 -6 -3 -3 4 0 16 6 28 8 15 8 20 1 16 -6 -4 -11 0 -11 8 0
9 -6 13 -13 10 -8 -3 -20 2 -27 11 -11 13 -7 15 35 15 38 0 46 -3 41 -16z
m448 -18 c-8 -38 -12 -46 -26 -46 -6 0 -8 9 -5 20 3 11 1 18 -3 15 -5 -3 -16
5 -24 17 -11 15 -16 18 -17 8 -4 -68 -29 -162 -43 -157 -6 3 -10 10 -8 17 11
47 13 92 4 86 -6 -3 -12 0 -15 6 -3 7 -4 2 -3 -12 1 -14 4 -30 7 -35 3 -6 -2
-23 -10 -40 -12 -22 -22 -29 -38 -27 -13 2 -23 8 -23 14 0 6 -3 8 -7 5 -3 -4
-12 -2 -20 4 -14 13 -16 9 -7 -15 3 -9 10 -14 14 -11 4 2 8 -7 8 -21 0 -25 -1
-25 -19 -5 -11 11 -19 25 -19 31 0 5 -5 10 -10 10 -6 0 -5 8 2 20 15 24 31 25
48 5 7 -8 24 -15 37 -15 25 0 25 2 21 50 -3 28 -2 53 2 55 4 3 5 16 2 30 l-4
26 81 -2 82 -2 -7 -31z m-1390 -2 c3 -9 1 -23 -4 -32 -9 -14 -10 -13 -5 6 4
13 2 22 -4 22 -6 0 -11 5 -11 10 0 16 17 12 24 -6z m328 -16 c-9 -9 -12 -7
-12 12 0 19 3 21 12 12 9 -9 9 -15 0 -24z m-238 -8 c6 0 17 5 24 12 8 8 12 9
12 1 0 -23 -13 -43 -27 -43 -7 0 -13 -7 -11 -17 2 -11 -7 -19 -26 -24 -46 -13
-92 29 -50 45 22 9 32 -3 14 -14 -11 -7 -11 -10 -2 -10 18 0 27 30 12 40 -7 4
-9 13 -5 20 6 9 13 6 27 -11 l19 -24 -4 25 c-2 14 -2 19 0 13 3 -7 10 -13 17
-13z m310 13 c7 -17 -14 -42 -55 -63 -13 -8 -19 -15 -12 -17 7 -3 9 -11 6 -19
-10 -28 -21 -13 -19 29 0 24 6 41 12 40 6 -1 17 9 24 22 15 29 35 32 44 8z
m120 -4 c-3 -5 -8 -7 -12 -5 -4 2 -7 -10 -6 -27 0 -18 -2 -36 -5 -42 -3 -5 -6
-14 -6 -19 0 -15 -25 -19 -26 -4 0 7 -2 25 -4 41 -2 15 0 27 4 27 4 0 13 11
19 25 7 16 17 23 27 19 8 -3 12 -10 9 -15z m-54 -9 c0 -4 -6 -10 -14 -13 -10
-4 -14 0 -13 12 1 18 27 18 27 1z m-1043 -6 c-3 -4 -2 -15 3 -24 7 -14 5 -19
-10 -23 -13 -3 -17 -11 -13 -26 3 -12 1 -21 -5 -21 -6 0 -12 10 -14 22 -4 25
-28 37 -28 14 0 -9 -4 -16 -10 -16 -15 0 -12 26 4 39 11 9 20 10 35 1 14 -7
21 -7 21 0 0 5 -5 10 -11 10 -8 0 -8 5 1 15 7 8 17 15 23 15 6 0 7 -3 4 -6z
m1803 -58 c-1 -26 -2 -28 -11 -13 -5 9 -7 22 -4 27 3 6 1 10 -4 10 -6 0 -11
10 -11 23 1 21 1 22 15 3 8 -11 15 -34 15 -50z m110 54 c0 -5 -5 -10 -11 -10
-5 0 -7 5 -4 10 3 6 8 10 11 10 2 0 4 -4 4 -10z m-1700 -11 c0 -8 4 -8 15 1 8
6 19 9 25 5 22 -13 8 -21 -41 -22 -43 -1 -49 1 -38 13 14 17 39 19 39 3z m775
-25 c-18 -19 -30 -12 -21 11 3 9 10 13 16 10 5 -3 10 0 11 7 0 10 2 10 6 1 2
-7 -3 -20 -12 -29z m165 11 c-7 -9 -15 -13 -17 -11 -7 7 7 26 19 26 6 0 6 -6
-2 -15z m98 9 c18 -5 20 -9 11 -20 -15 -19 -33 -18 -25 1 3 8 1 15 -4 15 -11
0 -12 -8 -12 -57 0 -22 -5 -32 -19 -36 -14 -4 -19 0 -19 14 0 10 4 19 10 19 5
0 9 11 8 25 -2 24 -3 24 -21 5 -17 -19 -37 -27 -37 -14 0 10 28 34 52 43 29
12 28 12 56 5z m-908 -8 c0 -3 -4 -8 -10 -11 -5 -3 -10 -1 -10 4 0 6 5 11 10
11 6 0 10 -2 10 -4z m1623 -74 c4 -30 2 -42 -6 -39 -7 2 -13 16 -15 30 -5 42
-22 21 -22 -26 0 -41 0 -41 -16 -18 -13 18 -14 25 -4 31 7 4 9 13 6 19 -4 6
-3 11 3 11 6 0 7 8 2 22 -5 14 -4 27 3 34 17 19 42 -14 49 -64z m-1593 59 c0
-5 -6 -12 -12 -14 -8 -3 -6 -6 5 -6 9 -1 17 4 17 10 0 6 9 8 23 3 30 -9 31
-11 18 -26 -7 -7 -18 -22 -26 -33 -11 -16 -16 -18 -26 -7 -11 10 -10 12 1 12
9 0 6 7 -8 20 -23 22 -27 32 -15 43 9 10 23 9 23 -2z m187 -13 c-3 -8 -6 -5
-6 6 -1 11 2 17 5 13 3 -3 4 -12 1 -19z m149 -15 c-4 -4 -11 -1 -16 7 -16 25
-11 35 7 17 9 -9 13 -20 9 -24z m402 17 c-14 -22 -24 -19 -15 5 4 8 11 15 17
15 6 0 6 -7 -2 -20z m-918 -15 c26 -28 34 -55 17 -55 -7 0 -5 -5 3 -10 13 -8
12 -10 -2 -10 -10 0 -18 -4 -18 -10 0 -5 -7 -10 -15 -10 -8 0 -15 5 -15 10 0
6 7 10 16 10 8 0 12 5 9 10 -3 6 -2 10 3 10 6 0 13 7 16 16 4 11 2 15 -8 11
-10 -4 -13 -1 -9 9 4 10 -2 14 -21 14 -24 0 -25 -2 -16 -20 9 -17 8 -20 -9
-20 -17 0 -18 3 -8 35 12 42 25 44 57 10z m40 15 c0 -5 -7 -10 -15 -10 -8 0
-15 5 -15 10 0 6 7 10 15 10 8 0 15 -4 15 -10z m43 -2 c4 -10 7 -10 14 -1 6 8
13 9 23 2 13 -8 13 -10 1 -18 -16 -10 -24 -41 -11 -41 5 0 11 6 13 13 3 6 6 2
6 -10 1 -31 -13 -36 -40 -13 -21 17 -22 21 -9 30 14 9 13 11 -9 14 -16 2 -23
14 -16 25 8 15 22 14 28 -1z m681 3 c3 -4 -3 -16 -14 -26 -20 -18 -20 -18 -16
6 3 13 5 25 5 27 2 6 20 1 25 -7z m66 -6 c0 -24 -4 -30 -17 -29 -7 1 -13 -5
-13 -13 0 -8 -4 -12 -9 -9 -5 4 -11 0 -14 -6 -3 -9 -8 -10 -16 -2 -8 7 -3 19
20 42 34 35 49 40 49 17z m276 -30 c-3 -9 -12 -12 -21 -9 -11 5 -13 10 -6 17
5 5 7 17 3 26 -5 14 -3 13 12 -2 10 -10 15 -24 12 -32z m300 6 c-8 -9 -16 -25
-18 -36 -2 -11 -10 -19 -16 -17 -7 1 -12 -2 -12 -8 0 -5 -4 -10 -9 -10 -6 0
-3 12 5 28 7 15 14 34 14 43 0 25 21 40 37 27 11 -9 11 -13 -1 -27z m61 13
c-9 -9 -28 6 -21 18 4 6 10 6 17 -1 6 -6 8 -13 4 -17z m-1127 -10 c0 -8 -5
-12 -10 -9 -6 4 -8 11 -5 16 9 14 15 11 15 -7z m240 6 c0 -5 -4 -10 -10 -10
-5 0 -10 5 -10 10 0 6 5 10 10 10 6 0 10 -4 10 -10z m-860 -15 c11 -13 10 -14
-4 -9 -9 3 -16 10 -16 15 0 13 6 11 20 -6z m650 5 c0 -5 -4 -10 -10 -10 -5 0
-10 5 -10 10 0 6 5 10 10 10 6 0 10 -4 10 -10z m180 -9 c0 -20 -20 -33 -57
-37 -16 -2 -20 1 -16 13 5 12 3 14 -8 8 -12 -7 -12 -6 -1 6 11 12 15 11 23 -3
11 -19 43 -13 35 7 -5 14 2 25 16 25 4 0 8 -9 8 -19z m943 4 c-3 -9 -8 -14
-10 -11 -3 3 -2 9 2 15 9 16 15 13 8 -4z m-1592 -10 c5 4 6 -1 3 -9 -7 -18
-24 -22 -24 -6 0 6 -6 10 -14 10 -8 0 -18 4 -21 10 -4 7 3 7 20 0 15 -6 31 -8
36 -5z m549 -12 c0 -13 -3 -13 -15 -3 -8 7 -15 16 -15 21 0 5 7 6 15 3 8 -4
15 -13 15 -21z m686 0 c-10 -10 -19 5 -10 18 6 11 8 11 12 0 2 -7 1 -15 -2
-18z m-561 7 c3 -5 1 -10 -4 -10 -6 0 -11 5 -11 10 0 6 2 10 4 10 3 0 8 -4 11
-10z m895 -8 c0 -10 -7 -27 -15 -38 -13 -16 -16 -17 -25 -4 -8 13 -10 13 -10
-2 0 -10 -5 -18 -11 -18 -13 0 15 48 39 68 21 16 22 15 22 -6z m230 10 c0 -5
-6 -17 -14 -27 -13 -18 -14 -18 -9 8 5 24 23 39 23 19z m-1885 -13 c11 -17 -1
-21 -15 -4 -8 9 -8 15 -2 15 6 0 14 -5 17 -11z m349 -5 c4 -10 1 -14 -6 -12
-15 5 -23 28 -10 28 5 0 13 -7 16 -16z m67 3 c-6 -8 -8 -17 -4 -20 3 -4 -1 -7
-10 -7 -15 0 -15 3 -5 20 7 11 17 20 22 20 4 0 3 -6 -3 -13z m149 -13 c0 -17
4 -23 13 -18 9 5 9 4 0 -6 -12 -13 -37 -5 -28 10 3 5 1 11 -5 15 -12 7 -4 25
11 25 5 0 9 -12 9 -26z m-312 -3 c3 -8 -1 -12 -9 -9 -7 2 -15 10 -17 17 -3 8
1 12 9 9 7 -2 15 -10 17 -17z m782 -2 c0 -14 -17 -10 -23 5 -4 10 -1 13 9 9 7
-3 14 -9 14 -14z m-1085 -7 c-3 -3 -11 0 -18 7 -9 10 -8 11 6 5 10 -3 15 -9
12 -12z m670 8 c3 -5 2 -10 -4 -10 -5 0 -13 5 -16 10 -3 6 -2 10 4 10 5 0 13
-4 16 -10z m485 3 c0 -5 -5 -15 -10 -23 -8 -12 -10 -11 -10 8 0 12 5 22 10 22
6 0 10 -3 10 -7z m190 -9 c0 -8 -4 -12 -10 -9 -5 3 -10 10 -10 16 0 5 5 9 10
9 6 0 10 -7 10 -16z m398 -2 c2 -7 -3 -12 -12 -12 -9 0 -16 7 -16 16 0 17 22
14 28 -4z m-1665 1 c-7 -2 -13 -12 -13 -20 0 -9 -3 -13 -7 -10 -3 4 -16 -1
-27 -10 -13 -11 -16 -12 -9 -3 6 8 11 19 11 25 1 9 29 24 47 24 6 -1 4 -3 -2
-6z m461 -8 c-4 -8 -12 -15 -20 -15 -8 0 -14 -5 -14 -12 0 -6 -3 -8 -7 -5 -7
8 25 47 38 47 5 0 6 -7 3 -15z m1456 -6 c0 -5 -4 -9 -10 -9 -5 0 -10 7 -10 16
0 8 5 12 10 9 6 -3 10 -10 10 -16z m-744 -4 c-1 -9 -5 -15 -9 -15 -4 0 -12 0
-18 0 -8 0 -8 5 1 15 16 19 29 19 26 0z m-1056 -5 c0 -5 -2 -10 -4 -10 -3 0
-8 5 -11 10 -3 6 -1 10 4 10 6 0 11 -4 11 -10z m287 -9 c0 -11 -5 -17 -9 -15
-11 7 -10 34 1 34 6 0 9 -9 8 -19z m243 7 c0 -7 -5 -20 -11 -28 -9 -13 -10
-12 -5 3 3 9 1 17 -4 17 -6 0 -10 5 -10 10 0 6 7 10 15 10 8 0 15 -6 15 -12z
m372 -6 c-7 -2 -10 -8 -6 -13 3 -5 0 -9 -5 -9 -13 0 -13 3 -5 24 3 9 11 13 17
9 8 -5 7 -8 -1 -11z m638 2 c0 -2 -9 -4 -21 -4 -11 0 -18 4 -14 10 5 8 35 3
35 -6z m-1462 -3 c10 -6 9 -11 -4 -22 -13 -11 -18 -11 -21 -1 -3 6 -12 12 -21
12 -15 0 -15 2 -2 10 18 12 31 12 48 1z m-298 -11 c0 -5 -2 -10 -4 -10 -2 0
-12 -3 -22 -7 -16 -6 -17 -5 -4 10 17 19 30 22 30 7z m120 0 c0 -5 -2 -10 -4
-10 -3 0 -8 5 -11 10 -3 6 -1 10 4 10 6 0 11 -4 11 -10z m1556 -17 c-8 -8 -36
5 -36 17 0 7 6 7 21 0 11 -7 18 -14 15 -17z m-886 7 c0 -5 -5 -10 -11 -10 -5
0 -7 5 -4 10 3 6 8 10 11 10 2 0 4 -4 4 -10z m610 6 c0 -3 -4 -8 -10 -11 -5
-3 -10 -1 -10 4 0 6 5 11 10 11 6 0 10 -2 10 -4z"/>
<path d="M1105 2640 c-11 -5 -28 -11 -38 -14 -17 -6 -16 -9 12 -35 20 -19 31
-39 32 -58 0 -15 3 -22 6 -15 2 6 15 12 28 12 39 0 48 23 20 48 -14 12 -25 31
-25 41 0 25 -10 31 -35 21z"/>
<path d="M1191 2354 c0 -11 3 -14 6 -6 3 7 2 16 -1 19 -3 4 -6 -2 -5 -13z"/>
<path d="M2140 2780 c8 -5 24 -9 35 -9 l20 0 -20 9 c-11 5 -27 9 -35 9 -13 1
-13 0 0 -9z"/>
<path d="M2111 2744 c0 -11 3 -14 6 -6 3 7 2 16 -1 19 -3 4 -6 -2 -5 -13z"/>
<path d="M2473 2753 c9 -2 25 -2 35 0 9 3 1 5 -18 5 -19 0 -27 -2 -17 -5z"/>
<path d="M2565 2743 c11 -3 24 -9 29 -14 6 -5 14 -5 20 0 6 5 20 11 31 14 11
2 -7 5 -40 5 -33 0 -51 -2 -40 -5z"/>
<path d="M2753 2733 c9 -2 23 -2 30 0 6 3 -1 5 -18 5 -16 0 -22 -2 -12 -5z"/>
<path d="M2860 2720 c8 -5 24 -9 35 -9 l20 0 -20 9 c-11 5 -27 9 -35 9 -13 1
-13 0 0 -9z"/>
<path d="M2928 2703 c6 -2 18 -2 25 0 6 3 1 5 -13 5 -14 0 -19 -2 -12 -5z"/>
<path d="M2060 2586 c0 -2 7 -9 15 -16 13 -11 14 -10 9 4 -5 14 -24 23 -24 12z"/>
<path d="M2115 2514 c9 -9 19 -13 23 -10 3 4 0 11 -8 16 -24 15 -33 11 -15 -6z"/>
<path d="M2389 2483 c-8 -9 -9 -14 -2 -10 7 5 13 -1 16 -15 3 -17 5 -14 6 10
1 37 -1 39 -20 15z"/>
<path d="M2100 2440 c0 -5 7 -7 15 -4 8 4 15 8 15 10 0 2 -7 4 -15 4 -8 0 -15
-4 -15 -10z"/>
<path d="M2321 2334 c0 -11 3 -14 6 -6 3 7 2 16 -1 19 -3 4 -6 -2 -5 -13z"/>
<path d="M2600 2290 c-13 -8 -13 -10 2 -10 9 0 20 5 23 10 8 13 -5 13 -25 0z"/>
<path d="M2140 2238 c0 -9 5 -20 10 -23 13 -8 13 5 0 25 -8 13 -10 13 -10 -2z"/>
<path d="M2067 2163 c-12 -12 -7 -22 8 -17 8 4 15 10 15 15 0 11 -14 12 -23 2z"/>
<path d="M2630 2106 c0 -2 7 -9 15 -16 9 -7 15 -8 15 -2 0 5 -7 12 -15 16 -8
3 -15 4 -15 2z"/>
<path d="M2922 2090 c0 -14 2 -19 5 -12 2 6 2 18 0 25 -3 6 -5 1 -5 -13z"/>
</g>
</svg>
